<?xml version="1.0" encoding="UTF-8" standalone="no"?>
<!-- Created with Inkscape (http://www.inkscape.org/) -->

<svg
   width="24"
   height="24"
   viewBox="0 0 24 24"
   version="1.1"
   id="svg5"
   inkscape:version="1.1 (c68e22c387, 2021-05-23)"
   sodipodi:docname="icon.svg"
   xmlns:inkscape="http://www.inkscape.org/namespaces/inkscape"
   xmlns:sodipodi="http://sodipodi.sourceforge.net/DTD/sodipodi-0.dtd"
   xmlns="http://www.w3.org/2000/svg"
   xmlns:svg="http://www.w3.org/2000/svg">
  <sodipodi:namedview
     id="namedview7"
     pagecolor="#ffffff"
     bordercolor="#666666"
     borderopacity="1.0"
     inkscape:pageshadow="2"
     inkscape:pageopacity="0.0"
     inkscape:pagecheckerboard="0"
     inkscape:document-units="mm"
     showgrid="false"
     inkscape:zoom="49.773738"
     inkscape:cx="14.314778"
     inkscape:cy="16.605142"
     inkscape:window-width="2560"
     inkscape:window-height="1361"
     inkscape:window-x="-9"
     inkscape:window-y="-9"
     inkscape:window-maximized="1"
     inkscape:current-layer="layer1"
     inkscape:snap-page="false" />
  <defs
     id="defs2" />
  <g
     inkscape:label="Layer 1"
     inkscape:groupmode="layer"
     id="layer1">
    <path
       style="fill:#000000;stroke-width:0.0768579"
       d="M 12.26446,23.904995 C 12.17992,23.887045 11.843422,23.820965 11.516697,23.758179 10.13141,23.491975 8.5908545,22.639692 7.4812969,21.525671 6.4644154,20.504695 5.3052433,18.598874 5.4208895,18.1381 c 0.062781,-0.250147 0.9558664,-1.184467 1.7325083,-1.812503 1.4421531,-1.166206 2.8597482,-1.872475 4.6114842,-2.297515 0.25877,-0.06279 0.869856,-0.101794 1.575589,-0.10058 0.953566,0.0018 1.26581,0.03228 1.806161,0.177258 1.335213,0.358214 2.600089,1.0272 3.7552,1.986098 l 0.664137,0.551323 0.02032,-3.241355 C 19.608159,9.9084341 19.599179,9.8174852 19.213116,9.6178396 18.624967,9.3136946 17.9904,9.7288687 17.9904,10.417824 c 0,0.159751 -0.07046,0.286851 -0.236473,0.426536 -0.297102,0.249996 -0.612371,0.254795 -0.892788,0.0136 C 16.661643,10.686356 16.64242,10.619832 16.602863,9.9640263 16.562,9.2867257 16.549247,9.2457801 16.313315,9.0349764 15.984372,8.741065 15.563041,8.7326909 15.229396,9.0134203 c -0.130059,0.1094366 -0.236471,0.2661853 -0.236471,0.3483295 0,0.3116559 -0.221719,0.6806862 -0.484157,0.8058342 -0.242632,0.115701 -0.282081,0.115486 -0.531605,-0.0029 -0.33978,-0.161235 -0.444539,-0.3909117 -0.444539,-0.9745992 0,-0.5010054 -0.08056,-0.724512 -0.335641,-0.9311325 -0.317975,-0.2575671 -1.012117,-0.1190325 -1.169887,0.2334768 -0.03198,0.071445 -0.07812,0.5912223 -0.102523,1.1550687 -0.04148,0.9578032 -0.05631,1.0348362 -0.225837,1.1720852 -0.116008,0.09393 -0.301098,0.146904 -0.513215,0.146904 -0.26687,0 -0.362928,-0.03961 -0.491062,-0.202508 -0.156761,-0.199288 -0.159296,-0.269619 -0.159296,-4.4231522 0,-3.6222961 -0.01652,-4.2526098 -0.116586,-4.4461033 -0.125605,-0.2428801 -0.46847,-0.4586307 -0.728855,-0.4586307 -0.2401722,0 -0.5693395,0.1934329 -0.6754913,0.3969484 -0.07054,0.1352411 -0.098289,1.5500114 -0.112569,5.739168 L 8.8827107,13.13189 8.6670639,13.317347 c -0.1467224,0.126185 -0.3096763,0.185458 -0.5098476,0.185458 -0.3479796,0 -0.4397561,-0.09108 -1.5418182,-1.530165 -1.3471522,-1.759126 -1.4334301,-1.851586 -1.7277498,-1.851586 -0.2767294,0 -0.5011334,0.213398 -0.5011334,0.476557 0,0.0742 0.3322314,1.233795 0.7382912,2.576857 0.9300982,3.076347 0.9414271,3.12474 0.7934244,3.389234 C 5.6886244,16.974017 4.9989831,17.011649 4.747332,16.627581 4.6359066,16.457579 4.3842389,15.677043 3.5787197,13.003263 3.0044796,11.097169 2.9855458,11.010972 3.0191538,10.455864 3.0702574,9.6118776 3.5710718,9.0209876 4.4524968,8.7647526 4.8014212,8.6633181 4.942713,8.6576008 5.2730371,8.7315187 5.8629934,8.8635445 6.2048163,9.1286725 6.8459667,9.9515269 L 7.422402,10.691323 7.4608341,6.1926468 7.4992662,1.6939696 7.7312055,1.2405943 C 8.122891,0.47496438 8.8242386,0.05268274 9.7041604,0.05268274 c 0.8512036,0 1.5735846,0.43345377 1.9677306,1.18070516 l 0.208284,0.3948834 0.02382,2.5847557 0.02382,2.5847559 0.322052,-0.074194 c 0.71764,-0.165348 1.647821,0.133644 2.132246,0.6853742 l 0.224022,0.2551511 0.459986,-0.1549583 c 0.555256,-0.18705 0.770873,-0.1923402 1.315533,-0.032262 0.427456,0.125624 0.83081,0.3842211 1.116484,0.7157891 l 0.161025,0.1868964 0.338555,-0.1377399 c 0.43419,-0.1766449 1.235497,-0.1827111 1.639212,-0.012396 0.478825,0.2019902 0.938665,0.6278425 1.154658,1.0693095 l 0.198472,0.4056622 8.93e-4,3.9551758 c 10e-4,4.674936 -0.04367,5.062281 -0.612901,5.298069 -0.322202,0.133462 -0.576055,0.0491 -0.864893,-0.287389 -0.516045,-0.601192 -1.551475,-1.555691 -2.095757,-1.931953 -0.311646,-0.215444 -0.590668,-0.39171 -0.620046,-0.39171 -0.02938,0 -0.03271,0.08253 -0.0073,0.183394 0.119461,0.475965 0.127447,1.118743 0.02028,1.632462 -0.587108,2.814341 -4.014586,3.838815 -6.046128,1.807184 -0.785984,-0.786016 -1.1688322,-1.938162 -1.0017876,-3.014785 0.044062,-0.284015 0.1040282,-0.578685 0.1332416,-0.65482 0.043686,-0.11385 -0.014227,-0.09946 -0.3261801,0.08108 -0.6933837,0.401253 -1.4488194,0.954799 -2.0233949,1.4826 l -0.5680293,0.521788 0.1750422,0.344775 c 0.8014089,1.578492 2.3688496,2.939093 4.0192681,3.488891 1.532591,0.510541 3.53665,0.403656 4.965226,-0.264822 0.943126,-0.44132 1.928637,-1.283629 2.527398,-2.16016 0.392069,-0.573952 0.870406,-0.642219 1.236742,-0.176503 0.236726,0.300953 0.20398,0.537864 -0.149302,1.080104 -0.337077,0.517365 -1.354151,1.538917 -1.915773,1.924207 -0.85282,0.585061 -1.947315,1.02165 -3.040592,1.212882 -0.622979,0.108962 -2.149818,0.151289 -2.531613,0.07016 z m 1.921449,-4.477039 c 0.430372,-0.191081 0.774571,-0.500991 1.019874,-0.918277 0.186578,-0.317382 0.209851,-0.433696 0.209851,-1.048697 0,-0.613843 -0.02348,-0.731637 -0.20842,-1.046257 -0.244173,-0.415347 -0.667502,-0.807162 -1.054144,-0.975664 -0.36426,-0.158747 -1.337798,-0.158747 -1.702058,0 -0.725055,0.315988 -1.225827,1.025586 -1.281797,1.816313 -0.04414,0.623614 0.05972,1.04002 0.364273,1.460439 0.597068,0.82423 1.72058,1.12588 2.652421,0.712143 z"
       id="path836" />
  </g>
</svg>
