<?xml version="1.0" encoding="UTF-8" standalone="no"?>
<!-- Created with Inkscape (http://www.inkscape.org/) -->

<svg
   width="240mm"
   height="240mm"
   viewBox="0 0 240 240"
   version="1.1"
   id="svg5"
   inkscape:version="1.1 (c68e22c387, 2021-05-23)"
   sodipodi:docname="drawing.svg"
   xmlns:inkscape="http://www.inkscape.org/namespaces/inkscape"
   xmlns:sodipodi="http://sodipodi.sourceforge.net/DTD/sodipodi-0.dtd"
   xmlns="http://www.w3.org/2000/svg"
   xmlns:svg="http://www.w3.org/2000/svg">
  <sodipodi:namedview
     id="namedview7"
     pagecolor="#ffffff"
     bordercolor="#666666"
     borderopacity="1.0"
     inkscape:pageshadow="2"
     inkscape:pageopacity="0.0"
     inkscape:pagecheckerboard="0"
     inkscape:document-units="mm"
     showgrid="false"
     inkscape:zoom="1.0998546"
     inkscape:cx="429.60224"
     inkscape:cy="395.96143"
     inkscape:window-width="2560"
     inkscape:window-height="1361"
     inkscape:window-x="-9"
     inkscape:window-y="-9"
     inkscape:window-maximized="1"
     inkscape:current-layer="layer1" />
  <defs
     id="defs2" />
  <g
     inkscape:label="Layer 1"
     inkscape:groupmode="layer"
     id="layer1">
    <path
       style="fill:#000000;stroke-width:0.688612"
       d="m 122.36942,226.66395 c -0.75747,-0.16084 -3.77231,-0.75287 -6.69962,-1.3154 -12.41155,-2.38508 -26.214226,-10.02115 -36.155372,-20.00228 -9.110801,-9.14748 -19.496458,-26.22279 -18.460321,-30.35111 0.562507,-2.24121 8.564128,-10.6123 15.522492,-16.23922 12.921046,-10.44869 25.622061,-16.77654 41.316831,-20.58471 2.31846,-0.56254 7.79351,-0.91205 14.11656,-0.90115 8.54354,0.0156 11.34111,0.28929 16.18242,1.58816 11.9629,3.20944 23.29562,9.20325 33.64489,17.79454 l 5.95038,4.93962 0.18193,-29.04109 c 0.19597,-31.29028 0.1155,-32.10514 -3.34346,-33.893872 -5.26957,-2.72501 -10.955,0.99477 -10.955,7.167502 0,1.43129 -0.63133,2.57005 -2.1187,3.82157 -2.66185,2.23981 -5.48653,2.2828 -7.99894,0.12175 -1.78733,-1.53741 -1.95955,-2.13344 -2.31397,-8.00915 -0.36607,-6.068312 -0.48037,-6.435162 -2.59421,-8.323869 -2.94719,-2.633312 -6.72213,-2.708346 -9.71144,-0.193114 -1.16527,0.980515 -2.11867,2.384901 -2.11867,3.120871 0,2.7923 -1.98651,6.098642 -4.33783,7.219912 -2.17387,1.03663 -2.52732,1.03471 -4.76295,-0.0262 -3.04427,-1.44459 -3.98288,-3.50239 -3.98288,-8.731973 0,-4.488787 -0.72184,-6.491303 -3.00719,-8.342529 -2.8489,-2.307682 -9.06812,-1.066477 -10.48166,2.091843 -0.28649,0.640086 -0.69986,5.297093 -0.91861,10.348907 -0.3716,8.581482 -0.50457,9.271672 -2.02339,10.501362 -1.03939,0.84152 -2.69771,1.3162 -4.59818,1.3162 -2.39103,0 -3.25167,-0.35489 -4.39969,-1.81439 -1.40452,-1.78554 -1.42722,-2.41567 -1.42722,-39.62947 0,-32.454148 -0.14808,-38.101472 -1.04457,-39.835087 -1.12532,-2.176114 -4.19723,-4.109142 -6.530166,-4.109142 -2.151832,0 -5.101029,1.733068 -6.052102,3.556473 -0.632017,1.211708 -0.880651,13.887419 -1.008567,51.42039 l -0.169766,49.812236 -1.932094,1.66162 c -1.314564,1.13056 -2.774559,1.66163 -4.568005,1.66163 -3.117743,0 -3.940016,-0.81606 -13.814001,-13.70961 C 59.686465,103.99419 58.913454,103.1658 56.276483,103.1658 c -2.479372,0 -4.48993,1.91194 -4.48993,4.26973 0,0.66486 2.976642,11.05424 6.61476,23.08749 8.333261,27.56269 8.434764,27.99627 7.108727,30.36602 -2.057169,3.67638 -8.236042,4.01354 -10.490722,0.57244 -0.998285,-1.52355 -3.253121,-8.5168 -10.470211,-32.47269 -5.144928,-17.07773 -5.314573,-17.85003 -5.013456,-22.82354 0.457817,-7.561742 4.944939,-12.855845 12.842111,-15.151599 3.126208,-0.908807 4.392113,-0.960077 7.351672,-0.29776 5.285741,1.182893 8.348323,3.558321 14.092746,10.930719 l 5.164603,6.62824 0.344314,-40.306111 0.344301,-40.306133 2.07807,-4.062034 c 3.509325,-6.85971 9.793078,-10.643159 17.676787,-10.643159 7.626385,0 14.098595,3.883547 17.629975,10.578588 l 1.86613,3.537968 0.21342,23.158261 0.21341,23.158256 2.88545,-0.664785 c 6.42972,-1.481446 14.76374,1.197393 19.10398,6.140649 l 2.00714,2.286036 4.12126,-1.388352 c 4.97484,-1.675886 6.90668,-1.723284 11.78658,-0.289106 3.82981,1.125542 7.44369,3.442449 10.0032,6.41315 l 1.44271,1.674509 3.0333,-1.234086 c 3.89015,-1.582661 11.0695,-1.637011 14.68661,-0.11109 4.29005,1.809739 8.41002,5.625179 10.34521,9.580527 l 1.77823,3.63455 0.008,35.436602 c 0.0104,41.88533 -0.39123,45.35578 -5.49132,47.46832 -2.88679,1.19576 -5.16119,0.44 -7.74906,-2.57487 -4.62353,-5.3864 -13.90051,-13.93829 -18.77704,-17.30943 -2.79221,-1.93028 -5.29211,-3.50955 -5.55532,-3.50955 -0.26323,0 -0.29301,0.73938 -0.0661,1.64312 1.07031,4.26444 1.14186,10.02344 0.18167,14.62613 -5.26023,25.21524 -35.96891,34.39407 -54.17061,16.19156 -7.04207,-7.04236 -10.472205,-17.36506 -8.975565,-27.01112 0.394815,-2.54465 0.932025,-5.18475 1.193785,-5.86689 0.39142,-1.02005 -0.12746,-0.89107 -2.922427,0.72647 -6.211955,3.59507 -12.98032,8.55459 -18.128254,13.28345 l -5.089296,4.67499 1.568304,3.08903 c 7.180269,14.14257 21.22383,26.33296 36.010833,31.25889 13.73133,4.57423 31.68681,3.61659 44.4862,-2.37268 8.45,-3.95402 17.27973,-11.50074 22.64436,-19.35406 3.51276,-5.14236 7.79844,-5.754 11.08065,-1.58139 2.12096,2.69641 1.82757,4.81902 -1.33768,9.67725 -3.02006,4.63536 -12.13259,13.788 -17.16447,17.24003 -7.64088,5.24188 -17.44706,9.15353 -27.24233,10.86688 -5.58161,0.97629 -19.26142,1.35548 -22.68213,0.62869 z m 17.21533,-40.11227 c 3.85595,-1.712 6.93982,-4.48865 9.13763,-8.22734 1.67165,-2.84361 1.88017,-3.88573 1.88017,-9.39587 0,-5.49976 -0.21029,-6.55513 -1.86736,-9.37398 -2.18768,-3.72133 -5.98052,-7.23181 -9.44467,-8.74152 -3.2636,-1.42231 -11.98607,-1.42231 -15.24967,0 -6.49617,2.83112 -10.98287,9.1888 -11.48432,16.27335 -0.39548,5.5873 0.5351,9.31811 3.26372,13.08488 5.34945,7.38474 15.41562,10.08737 23.7645,6.38048 z"
       id="path836" />
  </g>
</svg>
